<svg id="Layer_1" data-name="Layer 1" xmlns="http://www.w3.org/2000/svg" viewBox="0 0 95.54 95.54"><defs><style>.cls-1{fill:#fff;}.cls-2{fill:none;stroke:#f89c24;stroke-linecap:round;stroke-linejoin:round;stroke-width:2px;}</style></defs><title>MLN_Web-Literacy_Icons</title><path class="cls-1" d="M88.26,78.29a3.76,3.76,0,0,1,2.29.76,3.24,3.24,0,0,1,0,4.57,3.76,3.76,0,0,1-2.29.76H77.72a3.76,3.76,0,0,1,2.29.76,3.24,3.24,0,0,1,0,4.57,3.76,3.76,0,0,1-2.29.76h-6L59.36,82.24h-6V64.51H57L71.27,60H84.65a3.76,3.76,0,0,1,2.29.76,3.24,3.24,0,0,1,0,4.57,3.76,3.76,0,0,1-2.29.76h3s3.23,0,3.23,3v3s3.61-.19,3.61,3S92,78.33,88.26,78.29Z"/><line class="cls-2" x1="74.54" y1="78.29" x2="91.31" y2="78.29"/><line class="cls-2" x1="74.54" y1="84.39" x2="88.26" y2="84.39"/><path class="cls-2" d="M88.26,84.39a3.76,3.76,0,0,0,2.29-.76,3.24,3.24,0,0,0,0-4.57,3.76,3.76,0,0,0-2.29-.76"/><path class="cls-2" d="M91.31,78.29a3.76,3.76,0,0,0,2.29-.76,3.24,3.24,0,0,0,0-4.57,3.76,3.76,0,0,0-2.29-.76H74.54"/><path class="cls-2" d="M87.7,72.19A3.76,3.76,0,0,0,90,71.43a3.24,3.24,0,0,0,0-4.57,3.76,3.76,0,0,0-2.29-.76H74.54"/><path class="cls-2" d="M84.65,66.09a3.76,3.76,0,0,0,2.29-.76,3.24,3.24,0,0,0,0-4.57A3.76,3.76,0,0,0,84.65,60H71.27L57,64.51H53.35"/><path class="cls-2" d="M77.72,84.39a3.76,3.76,0,0,1,2.29.76,3.24,3.24,0,0,1,0,4.57,3.76,3.76,0,0,1-2.29.76h-6L59.36,82.24h-6"/><polyline class="cls-2" points="1 63.13 53.35 63.13 53.35 84.31 1 84.31"/><line class="cls-2" x1="47.65" y1="68.41" x2="47.65" y2="71.46"/><path class="cls-1" d="M24.87,88.26a3.76,3.76,0,0,0,.76,2.29,3.24,3.24,0,0,0,4.57,0A3.76,3.76,0,0,0,31,88.26V77.72A3.76,3.76,0,0,0,31.73,80a3.24,3.24,0,0,0,4.57,0,3.76,3.76,0,0,0,.76-2.29v-6L28.81,59.36v-6H11.09V57L6.57,71.27V84.65a3.76,3.76,0,0,0,.76,2.29,3.24,3.24,0,0,0,4.57,0,3.76,3.76,0,0,0,.76-2.29v3s0,3.23,3,3.23h3s-0.19,3.61,3,3.61S24.9,92,24.87,88.26Z"/><line class="cls-2" x1="24.87" y1="74.54" x2="24.87" y2="91.31"/><line class="cls-2" x1="30.97" y1="74.54" x2="30.97" y2="88.26"/><path class="cls-2" d="M31,88.26a3.76,3.76,0,0,1-.76,2.29,3.24,3.24,0,0,1-4.57,0,3.76,3.76,0,0,1-.76-2.29"/><path class="cls-2" d="M24.87,91.31a3.76,3.76,0,0,1-.76,2.29,3.24,3.24,0,0,1-4.57,0,3.76,3.76,0,0,1-.76-2.29V74.54"/><path class="cls-2" d="M18.77,87.7A3.76,3.76,0,0,1,18,90a3.24,3.24,0,0,1-4.57,0,3.76,3.76,0,0,1-.76-2.29V74.54"/><path class="cls-2" d="M12.67,84.65a3.76,3.76,0,0,1-.76,2.29,3.24,3.24,0,0,1-4.57,0,3.76,3.76,0,0,1-.76-2.29V71.27L11.09,57V53.35"/><path class="cls-2" d="M31,77.72A3.76,3.76,0,0,0,31.73,80a3.24,3.24,0,0,0,4.57,0,3.76,3.76,0,0,0,.76-2.29v-6L28.81,59.36v-6"/><polyline class="cls-2" points="9.7 1 9.7 53.35 30.88 53.35 30.88 1"/><line class="cls-2" x1="14.99" y1="47.65" x2="18.04" y2="47.65"/><path class="cls-1" d="M7.28,25.76A3.76,3.76,0,0,0,5,26.53,3.24,3.24,0,0,0,5,31.1a3.76,3.76,0,0,0,2.29.76H17.82a3.76,3.76,0,0,0-2.29.76,3.24,3.24,0,0,0,0,4.57,3.76,3.76,0,0,0,2.29.76h6l12.33-8.25h6V12H38.54L24.27,7.46H10.9a3.76,3.76,0,0,0-2.29.76,3.24,3.24,0,0,0,0,4.57,3.76,3.76,0,0,0,2.29.76h-3s-3.23,0-3.23,3v3S1,19.47,1,22.67,3.53,25.8,7.28,25.76Z"/><line class="cls-2" x1="21.01" y1="25.76" x2="4.23" y2="25.76"/><line class="cls-2" x1="21.01" y1="31.86" x2="7.28" y2="31.86"/><path class="cls-2" d="M7.28,31.86A3.76,3.76,0,0,1,5,31.1a3.24,3.24,0,0,1,0-4.57,3.76,3.76,0,0,1,2.29-.76"/><path class="cls-2" d="M4.23,25.76A3.76,3.76,0,0,1,1.95,25a3.24,3.24,0,0,1,0-4.57,3.76,3.76,0,0,1,2.29-.76H21"/><path class="cls-2" d="M7.85,19.66a3.76,3.76,0,0,1-2.29-.76,3.24,3.24,0,0,1,0-4.57,3.76,3.76,0,0,1,2.29-.76H21"/><path class="cls-2" d="M10.9,13.56a3.76,3.76,0,0,1-2.29-.76,3.24,3.24,0,0,1,0-4.57,3.76,3.76,0,0,1,2.29-.76H24.27L38.54,12h3.65"/><path class="cls-2" d="M17.82,31.86a3.76,3.76,0,0,0-2.29.76,3.24,3.24,0,0,0,0,4.57,3.76,3.76,0,0,0,2.29.76h6l12.33-8.25h6"/><polyline class="cls-2" points="94.54 10.6 42.19 10.6 42.19 31.78 94.54 31.78"/><line class="cls-2" x1="47.89" y1="15.88" x2="47.89" y2="18.93"/><path class="cls-1" d="M71.16,7.28A3.76,3.76,0,0,0,70.4,5a3.24,3.24,0,0,0-4.57,0,3.76,3.76,0,0,0-.76,2.29V17.82a3.76,3.76,0,0,0-.76-2.29,3.24,3.24,0,0,0-4.57,0A3.76,3.76,0,0,0,59,17.82v6l8.25,12.33v6H84.94V38.54l4.52-14.27V10.9a3.76,3.76,0,0,0-.76-2.29,3.24,3.24,0,0,0-4.57,0,3.76,3.76,0,0,0-.76,2.29v-3s0-3.23-3-3.23h-3S77.46,1,74.25,1,71.13,3.53,71.16,7.28Z"/><line class="cls-2" x1="71.16" y1="21.01" x2="71.16" y2="4.23"/><line class="cls-2" x1="65.07" y1="21.01" x2="65.07" y2="7.28"/><path class="cls-2" d="M65.07,7.28A3.76,3.76,0,0,1,65.83,5,3.24,3.24,0,0,1,70.4,5a3.76,3.76,0,0,1,.76,2.29"/><path class="cls-2" d="M71.16,4.23a3.76,3.76,0,0,1,.76-2.29,3.24,3.24,0,0,1,4.57,0,3.76,3.76,0,0,1,.76,2.29V21"/><path class="cls-2" d="M77.26,7.85A3.76,3.76,0,0,1,78,5.56a3.24,3.24,0,0,1,4.57,0,3.76,3.76,0,0,1,.76,2.29V21"/><path class="cls-2" d="M83.36,10.9a3.76,3.76,0,0,1,.76-2.29,3.24,3.24,0,0,1,4.57,0,3.76,3.76,0,0,1,.76,2.29V24.27L84.94,38.54v3.65"/><path class="cls-2" d="M65.07,17.82a3.76,3.76,0,0,0-.76-2.29,3.24,3.24,0,0,0-4.57,0A3.76,3.76,0,0,0,59,17.82v6l8.25,12.33v6"/><line class="cls-2" x1="65.15" y1="86.36" x2="65.15" y2="94.54"/><polyline class="cls-2" points="86.33 59.99 86.33 42.19 65.15 42.19 65.15 61.93"/><line class="cls-2" x1="86.33" y1="94.54" x2="86.33" y2="84.39"/><line class="cls-2" x1="81.05" y1="47.89" x2="78" y2="47.89"/></svg>