<svg id="Layer_1" data-name="Layer 1" xmlns="http://www.w3.org/2000/svg" viewBox="0 0 84.8 92.9"><defs><style>.cls-1,.cls-3{fill:none;stroke:#f89c24;stroke-linecap:round;stroke-width:2px;}.cls-1{stroke-miterlimit:10;}.cls-2{fill:#f89c24;}.cls-3{stroke-linejoin:round;}</style></defs><title>MLN_Web-Literacy_Icons</title><circle class="cls-1" cx="66.85" cy="46.26" r="16.95"/><path class="cls-2" d="M66.85,36.56a9.7,9.7,0,1,1-9.7,9.7,9.71,9.71,0,0,1,9.7-9.7m0-2a11.7,11.7,0,1,0,11.7,11.7,11.7,11.7,0,0,0-11.7-11.7h0Z"/><path class="cls-1" d="M72.06,62.67v24a5.22,5.22,0,0,1-10.43,0v-24"/><polyline class="cls-3" points="1 26.64 1 1 83.8 1 83.8 26.64"/><polyline class="cls-3" points="53.53 87.06 1 87.06 1 32.88"/><line class="cls-1" x1="22.38" y1="8.64" x2="22.38" y2="11.79"/><line class="cls-1" x1="22.38" y1="16.16" x2="22.38" y2="34.8"/><line class="cls-1" x1="30.41" y1="34.8" x2="30.41" y2="31.65"/><line class="cls-1" x1="30.41" y1="26.16" x2="30.41" y2="8.64"/><line class="cls-1" x1="13.57" y1="71.15" x2="46.47" y2="71.15"/><line class="cls-1" x1="13.57" y1="77.45" x2="32.42" y2="77.45"/><path class="cls-2" d="M37.46,50.76v11.4H14.63V50.76H37.46m2-2H12.63v15.4H39.46V48.76h0Z"/><polyline class="cls-3" points="49.9 41.57 13.52 41.57 13.52 1 71.51 1 71.51 28.96"/><line class="cls-1" x1="38.44" y1="14.45" x2="38.44" y2="8.64"/><line class="cls-1" x1="38.44" y1="34.8" x2="38.44" y2="28.99"/><line class="cls-1" x1="38.44" y1="24.19" x2="38.44" y2="18.38"/><polyline class="cls-3" points="83.8 81.59 83.8 87.1 78.54 87.1"/><line class="cls-1" x1="83.8" y1="74.7" x2="83.8" y2="62.67"/><line class="cls-1" x1="46.47" y1="34.8" x2="46.47" y2="31.65"/><line class="cls-1" x1="46.47" y1="27.28" x2="46.47" y2="8.64"/><line class="cls-1" x1="54.5" y1="8.64" x2="54.5" y2="11.79"/><line class="cls-1" x1="54.5" y1="17.28" x2="54.5" y2="33.99"/><line class="cls-1" x1="62.53" y1="28.99" x2="62.53" y2="29.62"/><line class="cls-1" x1="62.53" y1="8.64" x2="62.53" y2="14.45"/><line class="cls-1" x1="62.53" y1="19.25" x2="62.53" y2="25.06"/></svg>