<svg id="Layer_1" data-name="Layer 1" xmlns="http://www.w3.org/2000/svg" viewBox="0 0 70 70"><defs><style>.cls-1{fill:#f89c24;}</style></defs><title>MLN_Web-Literacy_Icons</title><path class="cls-1" d="M64.24,23.7h5.22a0.5,0.5,0,0,0,0-1H64.56l1.55-4.89a0.5,0.5,0,0,0,0-.15V8.08h3.33a0.5,0.5,0,1,0,0-1H66.05a2.56,2.56,0,0,0-.63-1.32,3,3,0,0,0-3.79-.23,3.15,3.15,0,0,0-.71-2,2.88,2.88,0,0,0-3.79-.24V2.89a3.19,3.19,0,0,0-.71-2,2.89,2.89,0,0,0-4.08,0,3.14,3.14,0,0,0-.71,2,2.88,2.88,0,0,0-3.79.24,3.19,3.19,0,0,0-.71,2V7.08H30.87a0.5,0.5,0,0,0-.5.5V8.1H28.26L22.94,6.42V0.51a0.5,0.5,0,1,0-1,0V6.1L17.81,4.79l-0.15,0H7.8a3.92,3.92,0,0,0-.47,0V0.51a0.5,0.5,0,1,0-1,0V5.09a2,2,0,0,0-.57.39,2.86,2.86,0,0,0-.24,3.79,3.14,3.14,0,0,0-2,.71,2.88,2.88,0,0,0-.24,3.79H2.89a3.19,3.19,0,0,0-2,.71,2.89,2.89,0,0,0,0,4.08,3.14,3.14,0,0,0,2,.71,2.86,2.86,0,0,0,.24,3.79,3.19,3.19,0,0,0,2,.71H6.33V39.1a0.5,0.5,0,0,0,.5.5H7.35v2.11l-2,6.34H0.5a0.5,0.5,0,1,0,0,1H5L4,52.16a0.5,0.5,0,0,0,0,.15v9.86a3.76,3.76,0,0,0,.33,1.5H0.5a0.5,0.5,0,1,0,0,1H5.35a2.82,2.82,0,0,0,3.17-.22,3.13,3.13,0,0,0,.71,2A2.86,2.86,0,0,0,13,66.7v0.38a3.18,3.18,0,0,0,.71,2,2.89,2.89,0,0,0,4.08,0,3.13,3.13,0,0,0,.71-2,2.86,2.86,0,0,0,3.79-.24,3.19,3.19,0,0,0,.71-2V64.67H39.1a0.5,0.5,0,0,0,.5-0.5V63.65h2.11l5.5,1.74v4.08a0.5,0.5,0,0,0,1,0V65.7l4,1.25,0.15,0h9.86a4.12,4.12,0,0,0,.65-0.07v2.55a0.5,0.5,0,0,0,1,0V66.56a1.9,1.9,0,0,0,.39-0.29,2.88,2.88,0,0,0,.24-3.79,3.14,3.14,0,0,0,2-.71A2.88,2.88,0,0,0,66.7,58h0.39a3.19,3.19,0,0,0,2-.71,2.89,2.89,0,0,0,0-4.08,3.14,3.14,0,0,0-2-.71,2.88,2.88,0,0,0-.24-3.79,3.19,3.19,0,0,0-2-.71h-1V30.87a0.5,0.5,0,0,0-.5-0.5H62.8V28.26ZM31.37,8.08H47.14v2.55a2.88,2.88,0,0,0-3.79.24,3.18,3.18,0,0,0-.71,2v4.45a0.5,0.5,0,0,0,.08.28l3.39,5.06H31.37V8.08ZM48.73,30.37h-1a0.5,0.5,0,0,0-.5.5V47l-3.83,2.56H39.6v-1a0.5,0.5,0,0,0-.5-0.5H24.55l-3.13-4.68V39.6h1a0.5,0.5,0,0,0,.5-0.5V24.61l3.65-2.44h3.78v1a0.5,0.5,0,0,0,.5.5H46.79l1.94,2.9v3.78ZM3.25,21a1.87,1.87,0,0,1,.55-1.33,2.22,2.22,0,0,1,1.33-.42H15.25a0.5,0.5,0,0,0,0-1H2.89a2.25,2.25,0,0,1-1.33-.42,1.89,1.89,0,0,1,0-2.67,2.23,2.23,0,0,1,1.33-.42H15.25a0.5,0.5,0,0,0,0-1H5.55a2.24,2.24,0,0,1-1.33-.42,1.89,1.89,0,0,1,0-2.67,2.23,2.23,0,0,1,1.33-.42h9.7a0.5,0.5,0,0,0,0-1H7.8a2.24,2.24,0,0,1-1.33-.42,1.89,1.89,0,0,1,0-2.67A2.22,2.22,0,0,1,7.8,5.77h9.78L28,9.08l0.15,0h2.19V21.17H26.44a0.5,0.5,0,0,0-.28.08l-9,6H12.91a2.24,2.24,0,0,1-1.33-.42,1.88,1.88,0,0,1,0-2.67,2.22,2.22,0,0,1,1.33-.42h2.35a0.5,0.5,0,1,0,0-1H5.14a2.23,2.23,0,0,1-1.33-.42A1.87,1.87,0,0,1,3.25,21Zm4.08,2.75h3.3a2.86,2.86,0,0,0,.24,3.79,3.18,3.18,0,0,0,2,.71h4.45a0.5,0.5,0,0,0,.28-0.08l4.31-2.89V38.6H7.33V23.76ZM21.59,66.17a1.89,1.89,0,0,1-2.67,0,2.23,2.23,0,0,1-.42-1.33V54.72a0.5,0.5,0,0,0-1,0V67.08a2.22,2.22,0,0,1-.42,1.33,1.89,1.89,0,0,1-2.67,0A2.22,2.22,0,0,1,14,67.08V54.72a0.5,0.5,0,0,0-1,0v9.7a2.24,2.24,0,0,1-.42,1.33,1.93,1.93,0,0,1-2.67,0,2.22,2.22,0,0,1-.42-1.33v-9.7a0.5,0.5,0,0,0-1,0v7.45a2.25,2.25,0,0,1-.42,1.33,1.89,1.89,0,0,1-2.67,0A2.22,2.22,0,0,1,5,62.17V52.39L8.33,41.94a0.5,0.5,0,0,0,0-.15V39.6H20.42v3.93a0.5,0.5,0,0,0,.08.28l6,9v4.29a2.25,2.25,0,0,1-.42,1.33,1.89,1.89,0,0,1-2.67,0A2.23,2.23,0,0,1,23,57.06V54.72a0.5,0.5,0,0,0-1,0V64.84A2.24,2.24,0,0,1,21.59,66.17Zm17-2.5H23V59.34a2.86,2.86,0,0,0,3.79-.24,3.19,3.19,0,0,0,.71-2V52.62a0.5,0.5,0,0,0-.08-0.28l-2.2-3.29H38.6V63.67ZM66.72,50.74a1.87,1.87,0,0,1-.55,1.33,2.22,2.22,0,0,1-1.33.42H54.72a0.5,0.5,0,0,0,0,1H67.08a2.25,2.25,0,0,1,1.33.42,1.89,1.89,0,0,1,0,2.67,2.22,2.22,0,0,1-1.33.42H54.72a0.5,0.5,0,0,0,0,1h9.7a2.23,2.23,0,0,1,1.33.42,1.89,1.89,0,0,1,0,2.67,2.23,2.23,0,0,1-1.33.42h-9.7a0.5,0.5,0,0,0,0,1h7.45a2.24,2.24,0,0,1,1.33.42,1.89,1.89,0,0,1,0,2.67,2.23,2.23,0,0,1-1.33.42H52.39L41.94,62.67l-0.15,0H39.6V50.58h3.93a0.5,0.5,0,0,0,.28-0.08l9-6h4.29a2.24,2.24,0,0,1,1.33.42,1.88,1.88,0,0,1,0,2.67,2.22,2.22,0,0,1-1.33.42H54.72a0.5,0.5,0,0,0,0,1H64.83a2.24,2.24,0,0,1,1.33.42A1.87,1.87,0,0,1,66.72,50.74ZM62.82,48H59.34a2.86,2.86,0,0,0-.24-3.79,3.18,3.18,0,0,0-2-.71H52.62a0.5,0.5,0,0,0-.28.08L48.2,46.35v-15H62.82V48ZM49.73,30.37V26.44a0.5,0.5,0,0,0-.08-0.28l-6-9V12.91a2.22,2.22,0,0,1,.42-1.33,1.89,1.89,0,0,1,2.67,0,2.22,2.22,0,0,1,.42,1.33v2.35a0.5,0.5,0,0,0,1,0V5.14a2.23,2.23,0,0,1,.42-1.33,1.89,1.89,0,0,1,2.67,0,2.22,2.22,0,0,1,.42,1.33V15.26a0.5,0.5,0,0,0,1,0V2.89a2.25,2.25,0,0,1,.42-1.33,1.89,1.89,0,0,1,2.67,0,2.23,2.23,0,0,1,.42,1.33V15.26a0.5,0.5,0,0,0,1,0V5.55a2.24,2.24,0,0,1,.42-1.33,1.89,1.89,0,0,1,2.67,0,2.23,2.23,0,0,1,.42,1.33v9.7a0.5,0.5,0,0,0,1,0V7.8a2.24,2.24,0,0,1,.42-1.33,1.93,1.93,0,0,1,2.67,0,2.22,2.22,0,0,1,.42,1.33v9.78L61.82,28a0.5,0.5,0,0,0,0,.15v2.19H49.73Z"/><path class="cls-1" d="M59.43,34.58H57.18a0.5,0.5,0,0,0,0,1h2.25A0.5,0.5,0,0,0,59.43,34.58Z"/><path class="cls-1" d="M35.07,14.22a0.5,0.5,0,0,0,.5-0.5V11.48a0.5,0.5,0,0,0-1,0v2.25A0.5,0.5,0,0,0,35.07,14.22Z"/><path class="cls-1" d="M10.72,35.4H13a0.5,0.5,0,1,0,0-1H10.72A0.5,0.5,0,1,0,10.72,35.4Z"/><path class="cls-1" d="M34.9,57.53a0.5,0.5,0,0,0-.5.5v2.25a0.5,0.5,0,0,0,1,0V58A0.5,0.5,0,0,0,34.9,57.53Z"/></svg>