<svg id="Layer_1" data-name="Layer 1" xmlns="http://www.w3.org/2000/svg" viewBox="0 0 96.94 100.22"><defs><style>.cls-1,.cls-2,.cls-5{fill:none;stroke:#f89c24;stroke-width:2px;}.cls-1,.cls-2{stroke-linecap:round;}.cls-1,.cls-5{stroke-linejoin:round;}.cls-2{stroke-miterlimit:10;}.cls-3{fill:#f89c24;}.cls-4{fill:#fff;}</style></defs><title>MLN_Web-Literacy_Icons</title><rect class="cls-1" x="1" y="14.21" width="94.94" height="65.77"/><line class="cls-2" x1="6.69" y1="20.26" x2="10.03" y2="20.26"/><line class="cls-2" x1="64.72" y1="49.65" x2="81.39" y2="49.65"/><line class="cls-2" x1="13.79" y1="20.26" x2="32.42" y2="20.26"/><line class="cls-2" x1="6.69" y1="61.73" x2="32.42" y2="61.73"/><line class="cls-2" x1="6.69" y1="26.01" x2="32.42" y2="26.01"/><line class="cls-2" x1="6.69" y1="68.03" x2="25.54" y2="68.03"/><line class="cls-2" x1="64.72" y1="68.03" x2="90.45" y2="68.03"/><line class="cls-2" x1="72.33" y1="61.73" x2="90.45" y2="61.73"/><line class="cls-2" x1="64.72" y1="74.34" x2="90.45" y2="74.34"/><path class="cls-3" d="M31.46,39.28v16H7.75v-16H31.46m2-2H5.75v20H33.46v-20h0Z"/><path class="cls-3" d="M89.44,21.22V43.31H65.73V21.22H89.44m2-2H63.73V45.31H91.44V19.22h0Z"/><rect class="cls-4" x="41.37" y="9.95" width="14.2" height="75.06"/><path class="cls-5" d="M55.57,6.48V85H41.37V6.48S41,1,48.47,1,55.57,6.48,55.57,6.48Z"/><line class="cls-5" x1="48.47" y1="85.02" x2="48.47" y2="14.21"/><polygon class="cls-4" points="48.47 99.22 55.57 85.02 41.37 85.02 48.47 99.22"/><polygon class="cls-1" points="48.47 99.22 55.57 85.02 41.37 85.02 48.47 99.22"/><line class="cls-1" x1="46.7" y1="93.89" x2="50.25" y2="93.89"/><line class="cls-5" x1="41.37" y1="9.95" x2="55.57" y2="9.95"/><line class="cls-5" x1="41.37" y1="14.21" x2="55.57" y2="14.21"/><polyline class="cls-1" points="92.07 80.67 92.07 85.02 4.87 85.02 4.87 80.67"/></svg>