<svg id="Layer_1" data-name="Layer 1" xmlns="http://www.w3.org/2000/svg" viewBox="0 0 70 73"><defs><style>.cls-1{fill:#f89c24;}</style></defs><title>MLN_Web-Literacy_Icons</title><path class="cls-1" d="M69.49,9.79H40.65V4.69a4.23,4.23,0,0,0-1.12-2.91A6,6,0,0,0,35,.2a6,6,0,0,0-4.53,1.58,4.22,4.22,0,0,0-1.12,2.9V9.79H0.5a0.5,0.5,0,0,0-.5.5V58.08a0.5,0.5,0,0,0,.5.5H2.81v3.16a0.5,0.5,0,0,0,.5.5H29.53l5,10a0.5,0.5,0,0,0,.89,0l5-10H66.67a0.5,0.5,0,0,0,.5-0.5V58.58h2.31a0.5,0.5,0,0,0,.5-0.5V10.29A0.5,0.5,0,0,0,69.49,9.79ZM31.2,2.45A5.05,5.05,0,0,1,35,1.2a5.05,5.05,0,0,1,3.79,1.25,3.27,3.27,0,0,1,.87,2.2V6.7H30.33V4.65A3.27,3.27,0,0,1,31.2,2.45ZM30.33,7.7h9.32V9.79H30.33V7.7Zm9.32,53.54H35.49V10.79h4.16V61.24ZM30.33,10.79h4.16V61.24H30.33V10.79ZM1,10.79H29.33V57.58H1V10.79ZM3.81,58.58H29.33v2.66H3.81V58.58h0ZM35,70.94l-1.13-2.25h2.25Zm1.63-3.25H33.37l-2.72-5.45h8.7Zm29.56-9.11v2.66H40.65V58.58H66.17Zm2.81-1H40.65V10.79H69V57.58Z"/><path class="cls-1" d="M4.64,15.19H7.06a0.5,0.5,0,1,0,0-1H4.64A0.5,0.5,0,0,0,4.64,15.19Z"/><path class="cls-1" d="M46.8,36.55H58.91a0.5,0.5,0,0,0,0-1H46.8A0.5,0.5,0,0,0,46.8,36.55Z"/><path class="cls-1" d="M9.79,15.19H23.33a0.5,0.5,0,0,0,0-1H9.79A0.5,0.5,0,0,0,9.79,15.19Z"/><path class="cls-1" d="M23.33,44.32H4.64a0.5,0.5,0,0,0,0,1h18.7A0.5,0.5,0,0,0,23.33,44.32Z"/><path class="cls-1" d="M4.64,19.37h18.7a0.5,0.5,0,0,0,0-1H4.64A0.5,0.5,0,1,0,4.64,19.37Z"/><path class="cls-1" d="M18.33,48.9H4.64a0.5,0.5,0,0,0,0,1h13.7A0.5,0.5,0,0,0,18.33,48.9Z"/><path class="cls-1" d="M65.5,48.9H46.8a0.5,0.5,0,0,0,0,1H65.5A0.5,0.5,0,0,0,65.5,48.9Z"/><path class="cls-1" d="M65.5,44.32H52.33a0.5,0.5,0,1,0,0,1H65.5A0.5,0.5,0,0,0,65.5,44.32Z"/><path class="cls-1" d="M65.5,53.48H46.8a0.5,0.5,0,0,0,0,1H65.5A0.5,0.5,0,0,0,65.5,53.48Z"/><path class="cls-1" d="M22.88,26.93H5.16a1,1,0,0,0-1,1V40.7a1,1,0,0,0,1,1H22.88a1,1,0,0,0,1-1V27.93A1,1,0,0,0,22.88,26.93Zm0,13.77H5.16V27.93H22.88V40.7Z"/><path class="cls-1" d="M47.29,32.75H65a1,1,0,0,0,1-1V15.07a1,1,0,0,0-1-1H47.29a1,1,0,0,0-1,1V31.75A1,1,0,0,0,47.29,32.75Zm0-17.68H65V31.75H47.29V15.07Z"/></svg>