<svg id="Layer_1" data-name="Layer 1" xmlns="http://www.w3.org/2000/svg" viewBox="0 0 70 56"><defs><style>.cls-1{fill:#f89c24;}</style></defs><title>MLN_Web-Literacy_Icons</title><path class="cls-1" d="M69.84,20.42a0.5,0.5,0,0,0-.71,0l-6.32,6.32L46.47,10.41h0l-3-3L49.81,1.1A0.5,0.5,0,1,0,49.11.39L42.43,7.07a0.5,0.5,0,0,0,0,.71l2.48,2.48H25.08l2.48-2.48a0.5,0.5,0,0,0,0-.71L20.88,0.39a0.5,0.5,0,0,0-.71.71L26.5,7.42l-3,3h0L7.18,26.74,0.86,20.42a0.5,0.5,0,0,0-.71.71L6.83,27.8a0.5,0.5,0,0,0,.71,0l1.39-1.39a0.49,0.49,0,0,0,.13.27l4.3,4.3v3.13a0.5,0.5,0,0,0,.15.35l1.39,1.39a0.49,0.49,0,0,0-.27.13,4.35,4.35,0,0,0-1.26,2.58,3.84,3.84,0,0,0,3.84,3.84,2.51,2.51,0,0,0,.74-0.13,2.52,2.52,0,0,0-.13.74,3.84,3.84,0,0,0,3.84,3.84,2.52,2.52,0,0,0,.74-0.13,2.51,2.51,0,0,0-.13.74,3.84,3.84,0,0,0,3.84,3.84,2.52,2.52,0,0,0,.74-0.13,2.52,2.52,0,0,0-.13.74,3.84,3.84,0,0,0,3.84,3.84,4.35,4.35,0,0,0,2.58-1.26,0.49,0.49,0,0,0,.13-0.27l0.27,0.27a4.35,4.35,0,0,0,2.58,1.26A3.84,3.84,0,0,0,39.94,52l0.27,0.27a4.35,4.35,0,0,0,2.58,1.26,3.84,3.84,0,0,0,3.84-3.84s0-.06,0-0.1a3.35,3.35,0,0,0,1.74.6,3.84,3.84,0,0,0,3.84-3.84,4.35,4.35,0,0,0-1.26-2.58l-0.27-.27a3.84,3.84,0,0,0,3.75-3.83,4.35,4.35,0,0,0-1.26-2.58l-0.27-.27a0.49,0.49,0,0,0,.27-0.13l4.45-4.45a0.5,0.5,0,0,0,.15-0.35v-2l3.19-3.19a0.49,0.49,0,0,0,.13-0.28l1.39,1.39a0.5,0.5,0,0,0,.71,0l6.68-6.68A0.5,0.5,0,0,0,69.84,20.42Zm-52.65,21a2.84,2.84,0,0,1-2.84-2.84,3.31,3.31,0,0,1,1-1.87,0.49,0.49,0,0,0,.13-0.28l3.89,3.89a0.48,0.48,0,0,0-.27.13h0A3.31,3.31,0,0,1,17.19,41.41Zm4.45,4.45A2.84,2.84,0,0,1,18.81,43a3.32,3.32,0,0,1,1-1.87l0-.06a0.48,0.48,0,0,0,.09-0.22l3.89,3.89a0.49,0.49,0,0,0-.27.13A3.29,3.29,0,0,1,21.64,45.86Zm4.45,4.45a2.84,2.84,0,0,1-2.84-2.84,3.31,3.31,0,0,1,1-1.87,0.75,0.75,0,0,0,.13-0.28l3.89,3.89a0.48,0.48,0,0,0-.18.07L28,49.35A3.32,3.32,0,0,1,26.09,50.31Zm6.32,3.48a3.32,3.32,0,0,1-1.87,1,2.84,2.84,0,0,1-2.84-2.84,3.31,3.31,0,0,1,1-1.87,0.67,0.67,0,0,0,.13-0.27l3.89,3.89A0.49,0.49,0,0,0,32.42,53.8Zm21-14.11a2.84,2.84,0,0,1-2.84,2.84,3.31,3.31,0,0,1-1.87-1h0l-10-10a0.5,0.5,0,0,0-.71.71l10,10h0l2.22,2.22h0a3.32,3.32,0,0,1,1,1.87,2.84,2.84,0,0,1-2.84,2.84,3.32,3.32,0,0,1-1.87-1l-1.09-1.09,0,0h0L34.24,36a0.5,0.5,0,0,0-.71.71L44.67,47.84a3.27,3.27,0,0,1,1,1.86,2.84,2.84,0,0,1-2.84,2.84,3.32,3.32,0,0,1-1.87-1l-2.22-2.22h0l-8.9-8.9a0.5,0.5,0,0,0-.71.71L38,50.07a3.3,3.3,0,0,1,1,1.86,2.84,2.84,0,0,1-2.84,2.84,3.32,3.32,0,0,1-1.87-1L14.35,33.92V30.79a0.5,0.5,0,0,0-.15-0.35L9.76,26a0.49,0.49,0,0,0-.27-0.13L24.08,11.26h6.37l-5.82,5.82a4.35,4.35,0,0,0-1.26,2.58,3.84,3.84,0,0,0,3.84,3.84,4.35,4.35,0,0,0,2.58-1.26l5.42-5.42h2.63V23a0.5,0.5,0,0,0,.15.35l2.22,2.22h0L52.44,37.82h0A3.32,3.32,0,0,1,53.41,39.69ZM60.23,26l-3.34,3.34a0.5,0.5,0,0,0-.15.35v2L52.44,36a0.49,0.49,0,0,0-.13.27L41.77,25.72H43.9a3.84,3.84,0,0,0,3.84-3.84,0.5,0.5,0,0,0-1,0,2.84,2.84,0,0,1-2.84,2.84H40.77l-1.93-1.93V16.32a0.5,0.5,0,0,0-.5-0.5H35a0.5,0.5,0,0,0-.35.15l-5.56,5.56a3.29,3.29,0,0,1-1.87,1,2.84,2.84,0,0,1-2.84-2.84,3.32,3.32,0,0,1,1-1.87l6.53-6.53h14L60.51,25.85A0.49,0.49,0,0,0,60.23,26Z"/><path class="cls-1" d="M62.46,21.13a0.5,0.5,0,0,0,.71-0.71L60.94,18.2a0.5,0.5,0,0,0-.71.71Z"/><path class="cls-1" d="M7.18,21.27a0.5,0.5,0,0,0,.35-0.15L9.76,18.9a0.5,0.5,0,0,0-.71-0.71L6.83,20.42A0.5,0.5,0,0,0,7.18,21.27Z"/></svg>