<svg id="Layer_1" data-name="Layer 1" xmlns="http://www.w3.org/2000/svg" viewBox="0 0 112.67 80.54"><defs><style>.cls-1{fill:#fff;}.cls-2,.cls-3{fill:none;}.cls-2{stroke:#f89c24;stroke-linecap:round;stroke-linejoin:round;stroke-width:2px;}</style></defs><title>MLN_Web-Literacy_Icons</title><path class="cls-1" d="M61.69,54.55A12.5,12.5,0,1,1,74.19,67,12.49,12.49,0,0,1,61.69,54.55Zm-7.14,0A19.64,19.64,0,1,0,74.19,34.92,19.64,19.64,0,0,0,54.55,54.55Z"/><circle class="cls-2" cx="74.19" cy="54.55" r="12.49"/><path class="cls-3" d="M111.67,34.92a3.57,3.57,0,0,0-7.14,0V45.63a3.57,3.57,0,0,0,7.14,0V34.92Z"/><circle class="cls-2" cx="74.19" cy="54.55" r="19.63"/><path class="cls-3" d="M1,6.36V74.19a5.35,5.35,0,0,0,10.71,0V6.36A5.35,5.35,0,1,0,1,6.36Z"/><polygon class="cls-1" points="104.53 34.91 104.53 45.63 45.63 63.75 45.63 16.79 104.53 34.91"/><polygon class="cls-2" points="45.63 16.79 45.63 63.75 11.71 74.19 11.71 6.36 45.63 16.79"/><polyline class="cls-2" points="104.53 34.91 11.71 6.36 11.71 74.19 104.53 45.63"/><path class="cls-2" d="M111.67,34.92a3.57,3.57,0,0,0-7.14,0V45.63a3.57,3.57,0,0,0,7.14,0V34.92Z"/><path class="cls-2" d="M1,6.36V74.19a5.35,5.35,0,0,0,10.71,0V6.36A5.35,5.35,0,1,0,1,6.36Z"/><line class="cls-2" x1="38.3" y1="40.27" x2="35.1" y2="40.27"/><line class="cls-2" x1="31.16" y1="40.27" x2="27.96" y2="40.27"/><line class="cls-2" x1="24.02" y1="40.27" x2="20.82" y2="40.27"/></svg>