<svg id="Layer_1" data-name="Layer 1" xmlns="http://www.w3.org/2000/svg" viewBox="0 0 70 50"><defs><style>.cls-1{fill:#f89c24;}</style></defs><title>MLN_Web-Literacy_Icons</title><path class="cls-1" d="M67.26,18.92A2.72,2.72,0,0,0,64.62,21L28.47,9.87h0L7.64,3.46A3.83,3.83,0,0,0,0,3.84V46.12a3.83,3.83,0,0,0,7.64.38l20.83-6.41h0l5.73-1.76a12.73,12.73,0,0,0,24.3-7.48L64.62,29A2.72,2.72,0,0,0,70,28.32V21.64A2.73,2.73,0,0,0,67.26,18.92ZM6.68,46.12a2.84,2.84,0,1,1-5.68,0V3.84a2.84,2.84,0,0,1,5.68,0V46.12Zm21.14-6.87L7.68,45.44V4.52l20.14,6.2V39.25Zm18.3,6.37a11.71,11.71,0,0,1-11-7.58l3.32-1a8.26,8.26,0,0,0,15.74-4.84l3.3-1A11.66,11.66,0,0,1,46.12,45.62Zm-6.69-8.9,13.83-4.25A7.27,7.27,0,0,1,39.43,36.72Zm25.11-8.77-35.72,11V11L64.53,22v5.94ZM69,28.32a1.73,1.73,0,0,1-3.45,0V21.64a1.73,1.73,0,0,1,3.45,0v6.68Z"/><path class="cls-1" d="M21.76,25.48h2a0.5,0.5,0,0,0,0-1h-2A0.5,0.5,0,0,0,21.76,25.48Z"/><path class="cls-1" d="M17.31,25.48h2a0.5,0.5,0,0,0,0-1h-2A0.5,0.5,0,0,0,17.31,25.48Z"/><path class="cls-1" d="M12.86,25.48h2a0.5,0.5,0,0,0,0-1h-2A0.5,0.5,0,0,0,12.86,25.48Z"/></svg>