<svg id="Layer_1" data-name="Layer 1" xmlns="http://www.w3.org/2000/svg" viewBox="0 0 107.4 100.6"><defs><style>.cls-1,.cls-7{fill:#fff;}.cls-2,.cls-4,.cls-5{fill:none;}.cls-2,.cls-4,.cls-5,.cls-7{stroke:#f89c24;stroke-width:2px;}.cls-2,.cls-4{stroke-linecap:round;}.cls-2{stroke-miterlimit:10;}.cls-3{fill:#f89c24;}.cls-4,.cls-5,.cls-7{stroke-linejoin:round;}.cls-6{fill:#ffedc3;}</style></defs><title>MLN_Web-Literacy_Icons</title><polygon class="cls-1" points="99.6 99.6 7.8 99.6 1 92.8 1 89.4 41.8 89.4 45.2 92.8 62.2 92.8 65.6 89.4 106.4 89.4 106.4 92.8 99.6 99.6"/><path class="cls-1" d="M99.6,91.1V36.7a5.1,5.1,0,0,0-5.1-5.1H12.9a5.1,5.1,0,0,0-5.1,5.1V91.1"/><path class="cls-2" d="M99.6,88.7v-52a5.1,5.1,0,0,0-5.1-5.1H12.9a5.1,5.1,0,0,0-5.1,5.1v52"/><path class="cls-3" d="M92.5,38.7V82.3H14.9V38.7H92.5m2-2H12.9V84.3H94.5V36.7h0Z"/><polygon class="cls-4" points="99.6 99.6 7.8 99.6 1 92.8 1 89.4 41.8 89.4 45.2 92.8 62.2 92.8 65.6 89.4 106.4 89.4 106.4 92.8 99.6 99.6"/><rect class="cls-1" x="33.3" y="14.6" width="13.6" height="69.7"/><polyline class="cls-5" points="33.3 84.3 33.3 14.6 46.9 14.6 46.9 84.3"/><line class="cls-5" x1="40.1" y1="14.6" x2="40.1" y2="84.3"/><polygon class="cls-1" points="40.1 1 33.3 14.6 46.9 14.6 40.1 1"/><polygon class="cls-4" points="40.1 1 33.3 14.6 46.9 14.6 40.1 1"/><line class="cls-4" x1="41.8" y1="6.1" x2="38.4" y2="6.1"/><polyline class="cls-6" points="57.1 84.3 57.1 1 74.1 1 74.1 84.3"/><polyline class="cls-7" points="57.1 84.3 57.1 1 74.1 1 74.1 84.3"/><line class="cls-2" x1="67.3" y1="6.2" x2="67.3" y2="9.4"/><line class="cls-2" x1="57.1" y1="15.06" x2="62.2" y2="15.06"/><line class="cls-2" x1="57.1" y1="24.78" x2="62.2" y2="24.78"/><line class="cls-2" x1="57.1" y1="34.49" x2="62.2" y2="34.49"/><line class="cls-2" x1="57.1" y1="44.21" x2="62.2" y2="44.21"/><line class="cls-2" x1="57.1" y1="53.92" x2="62.2" y2="53.92"/><line class="cls-2" x1="57.1" y1="63.63" x2="62.2" y2="63.63"/><line class="cls-2" x1="57.1" y1="73.35" x2="62.2" y2="73.35"/></svg>