<svg id="Layer_1" data-name="Layer 1" xmlns="http://www.w3.org/2000/svg" viewBox="0 0 117.94 93.63"><defs><style>.cls-1,.cls-2{fill:none;}.cls-2{stroke:#f89c24;stroke-linecap:round;stroke-linejoin:round;stroke-width:2px;}</style></defs><title>MLN_Web-Literacy_Icons</title><path class="cls-1" d="M77.67,17.83H40.27L16,42.14V44l7.48,7.48V57.1L57.1,90.76s1.87,1.87,3.74,1.87A5.61,5.61,0,0,0,66.45,87c0-1.87-1.87-3.74-1.87-3.74L68.32,87s1.87,1.87,3.74,1.87a5.61,5.61,0,0,0,5.61-5.61c0-1.87-1.87-3.74-1.87-3.74l1.87,1.87s1.87,1.87,3.74,1.87A5.61,5.61,0,0,0,87,77.67c0-1.87-1.87-3.74-1.87-3.74l-3.74-3.74s1.87,1.87,3.74,1.87a5.61,5.61,0,0,0,5.61-5.61c0-1.87-1.87-3.74-1.87-3.74L87,60.84h1.87l7.48-7.48V49.62L102,44V42.14Z"/><path class="cls-1" d="M90.76,66.36c0-1.87-1.87-3.74-1.87-3.74L87,60.75,64.58,38.31V27.09H59l-9.35,9.35s-1.87,1.87-3.74,1.87a5.61,5.61,0,0,1-5.61-5.61c0-1.87,1.87-3.74,1.87-3.74L53.36,17.74H40.27L20.4,37.6,16,42v1.87l7.48,7.48V57L57.1,90.67s1.87,1.87,3.74,1.87a5.61,5.61,0,0,0,5.61-5.61c0-1.87-1.87-3.74-1.87-3.74l3.74,3.74s1.87,1.87,3.74,1.87a5.61,5.61,0,0,0,5.61-5.61c0-1.87-1.87-3.74-1.87-3.74l1.87,1.87s1.87,1.87,3.74,1.87A5.61,5.61,0,0,0,87,77.58c0-1.87-1.87-3.74-1.87-3.74L81.41,70.1S83.28,72,85.15,72A5.61,5.61,0,0,0,90.76,66.36Z"/><path class="cls-1" d="M32.79,68.32s-1.87,1.87-3.74,1.87a5.61,5.61,0,0,1-5.61-5.61c0-1.87,1.87-3.74,1.87-3.74Z"/><path class="cls-1" d="M40.27,75.8s-1.87,1.87-3.74,1.87a5.61,5.61,0,0,1-5.61-5.61c0-1.87,1.87-3.74,1.87-3.74Z"/><path class="cls-1" d="M47.75,83.28S45.88,85.15,44,85.15a5.61,5.61,0,0,1-5.61-5.61c0-1.87,1.87-3.74,1.87-3.74Z"/><path class="cls-1" d="M55.23,90.76s-1.87,1.87-3.74,1.87A5.61,5.61,0,0,1,45.88,87c0-1.87,1.87-3.74,1.87-3.74Z"/><polyline class="cls-1" points="1 34.66 12.22 45.88 45.88 12.22 34.66 1"/><polyline class="cls-1" points="116.94 34.66 105.72 45.88 72.06 12.22 83.28 1"/><line class="cls-2" x1="40.27" y1="17.83" x2="77.67" y2="17.83"/><polyline class="cls-2" points="101.98 44.01 96.37 49.62 96.37 53.36 88.89 60.84"/><line class="cls-2" x1="64.58" y1="53.36" x2="85.15" y2="73.93"/><path class="cls-2" d="M88.89,62.71s1.87,1.87,1.87,3.74a5.61,5.61,0,0,1-5.61,5.61c-1.87,0-3.74-1.87-3.74-1.87"/><path class="cls-2" d="M85.15,73.93S87,75.8,87,77.67a5.61,5.61,0,0,1-5.61,5.61c-1.87,0-3.74-1.87-3.74-1.87L57.1,60.84"/><path class="cls-2" d="M75.8,79.54s1.87,1.87,1.87,3.74a5.61,5.61,0,0,1-5.61,5.61c-1.87,0-3.74-1.87-3.74-1.87l-18.7-18.7"/><path class="cls-2" d="M64.58,83.28s1.87,1.87,1.87,3.74a5.61,5.61,0,0,1-5.61,5.61c-1.87,0-3.74-1.87-3.74-1.87L23.44,57.1V51.49L16,44"/><path class="cls-2" d="M32.79,68.32s-1.87,1.87-3.74,1.87a5.61,5.61,0,0,1-5.61-5.61c0-1.87,1.87-3.74,1.87-3.74"/><path class="cls-2" d="M40.27,75.8s-1.87,1.87-3.74,1.87a5.61,5.61,0,0,1-5.61-5.61c0-1.87,1.87-3.74,1.87-3.74"/><path class="cls-2" d="M47.75,83.28S45.88,85.15,44,85.15a5.61,5.61,0,0,1-5.61-5.61c0-1.87,1.87-3.74,1.87-3.74"/><path class="cls-2" d="M55.23,90.76s-1.87,1.87-3.74,1.87A5.61,5.61,0,0,1,45.88,87c0-1.87,1.87-3.74,1.87-3.74"/><path class="cls-2" d="M88.89,62.71L64.58,38.4V27.18H59l-9.35,9.35s-1.87,1.87-3.74,1.87a5.61,5.61,0,0,1-5.61-5.61c0-1.87,1.87-3.74,1.87-3.74L53.36,17.83"/><path class="cls-2" d="M79.54,36.53a5.61,5.61,0,0,1-5.61,5.61H68.32"/><polyline class="cls-2" points="116.94 34.66 105.72 45.88 72.06 12.22 83.28 1"/><polyline class="cls-2" points="1 34.66 12.22 45.88 45.88 12.22 34.66 1"/><line class="cls-2" x1="101.98" y1="30.92" x2="105.72" y2="34.66"/><line class="cls-2" x1="12.22" y1="34.66" x2="15.96" y2="30.92"/></svg>