<svg id="Layer_1" data-name="Layer 1" xmlns="http://www.w3.org/2000/svg" viewBox="0 0 70 66"><defs><style>.cls-1{fill:#f89c24;}</style></defs><title>MLN_Web-Literacy_Icons</title><path class="cls-1" d="M69.51,57.88h-4v-34A3.84,3.84,0,0,0,61.72,20H48.86V0.51a0.5,0.5,0,0,0-.5-0.5H37.23a0.5,0.5,0,0,0-.5.5V20H31.05V9.41a0.49,0.49,0,0,0,0-.21h0l-4.45-8.9a0.52,0.52,0,0,0-.89,0L21.2,9.19h0a0.49,0.49,0,0,0,0,.21V20H8.29a3.84,3.84,0,0,0-3.84,3.84v34h-4a0.5,0.5,0,0,0-.5.5v2.23A0.5,0.5,0,0,0,.15,61L4.6,65.42a0.5,0.5,0,0,0,.35.15h60.1a0.5,0.5,0,0,0,.35-0.15L69.86,61A0.5,0.5,0,0,0,70,60.61V58.38A0.5,0.5,0,0,0,69.51,57.88ZM48.86,24.38H61.22V54.55H48.86V24.38ZM31.05,21h5.68v2.34H31.05V21Zm0,3.34h5.68V54.55H31.05V24.38Zm-5-22.75L27,3.35H25.24ZM24.74,4.35h2.72l2.28,4.56H22.46ZM5.46,23.88A2.84,2.84,0,0,1,8.29,21H21.15v2.34H8.29a0.5,0.5,0,0,0-.5.5V55a0.5,0.5,0,0,0,.5.5H21.65a0.5,0.5,0,0,0,.5-0.5V9.91H25.6V55a0.5,0.5,0,1,0,1,0V9.91h3.45V55h0a0.5,0.5,0,0,0,.5.5h6.68a0.5,0.5,0,0,0,.5-0.5V48.38h2.84a0.5,0.5,0,0,0,0-1H37.73V42h2.84a0.5,0.5,0,0,0,0-1H37.73V35.66h2.84a0.5,0.5,0,0,0,0-1H37.73V29.3h2.84a0.5,0.5,0,0,0,0-1H37.73V22.94h2.84a0.5,0.5,0,0,0,0-1H37.73V16.58h2.84a0.5,0.5,0,0,0,0-1H37.73V10.22h2.84a0.5,0.5,0,0,0,0-1H37.73V1H47.86V55a0.5,0.5,0,0,0,.5.5H61.72a0.5,0.5,0,0,0,.5-0.5V23.88a0.5,0.5,0,0,0-.5-0.5H48.86V21H61.72a2.84,2.84,0,0,1,2.84,2.84v34H42.8a0.5,0.5,0,0,0-.35.15l-2.08,2.08H29.65L27.57,58a0.5,0.5,0,0,0-.35-0.15H5.46v-34Zm15.69,0.5V54.55H8.79V24.38H21.15ZM69,60.4l-4.16,4.16H5.16L1,60.4V58.88H27L29.09,61a0.5,0.5,0,0,0,.35.15H40.57A0.5,0.5,0,0,0,40.92,61L43,58.88H69V60.4Z"/><path class="cls-1" d="M43.91,6.51a0.5,0.5,0,0,0,.5-0.5V3.91a0.5,0.5,0,1,0-1,0V6A0.5,0.5,0,0,0,43.91,6.51Z"/></svg>