<svg id="Layer_1" data-name="Layer 1" xmlns="http://www.w3.org/2000/svg" viewBox="0 0 97.2 107.4"><defs><style>.cls-1{fill:#fff;}.cls-2,.cls-3{fill:none;stroke:#f89c24;stroke-linecap:round;stroke-width:2px;}.cls-2{stroke-linejoin:round;}.cls-3{stroke-miterlimit:10;}.cls-4{fill:#f89c24;}</style></defs><title>MLN_Web-Literacy_Icons</title><rect class="cls-1" x="1" y="1" width="95.2" height="91.8"/><rect class="cls-2" x="1" y="1" width="95.2" height="91.8"/><line class="cls-3" x1="1" y1="14.6" x2="96.2" y2="14.6"/><line class="cls-3" x1="6.2" y1="7.8" x2="9.4" y2="7.8"/><line class="cls-3" x1="13" y1="7.8" x2="16.2" y2="7.8"/><line class="cls-3" x1="19.8" y1="7.8" x2="23" y2="7.8"/><line class="cls-3" x1="28.2" y1="1.62" x2="28.2" y2="14.6"/><line class="cls-3" x1="33.3" y1="7.8" x2="91.1" y2="7.8"/><path class="cls-4" d="M85.7,25.1v13H11.5v-13H85.7m2-2H9.5v17H87.7v-17h0Z"/><line class="cls-3" x1="87.7" y1="82.6" x2="60.5" y2="82.6"/><line class="cls-3" x1="87.7" y1="75.8" x2="60.5" y2="75.8"/><line class="cls-3" x1="36.7" y1="82.6" x2="9.5" y2="82.6"/><line class="cls-3" x1="36.7" y1="75.8" x2="9.5" y2="75.8"/><path class="cls-4" d="M85.7,45.5V68.7H11.5V45.5H85.7m2-2H9.5V70.7H87.7V43.5h0Z"/><path class="cls-1" d="M55.4,69V99.6a6.8,6.8,0,1,1-13.6,0V69"/><circle class="cls-1" cx="48.6" cy="46.9" r="22.1"/><circle class="cls-3" cx="48.6" cy="46.9" r="22.1"/><path class="cls-3" d="M55.4,68.3V99.6a6.8,6.8,0,1,1-13.6,0V68.3"/><line class="cls-3" x1="48.6" y1="94.6" x2="48.6" y2="97.8"/><polyline class="cls-2" points="58.8 40.1 45.2 53.7 38.4 46.9"/></svg>