<svg id="Layer_1" data-name="Layer 1" xmlns="http://www.w3.org/2000/svg" viewBox="0 0 25 25"><defs><style>.cls-1{fill:#fff;}</style></defs><title>navigation-icon_web-literacy</title><path class="cls-1" d="M24.22,8.95h0l-0.08-.24-0.08-.24h0a11.62,11.62,0,0,0-2.3-4h0l-0.17-.19-0.07-.07-0.1-.12h0a11.55,11.55,0,0,0-3.73-2.7h0l-0.23-.1h0L17.26,1.2h0a11.64,11.64,0,0,0-4.51-1h-0.5a11.64,11.64,0,0,0-4.5,1h0l-0.23.1-0.23.1h0A11.63,11.63,0,0,0,3.57,4.11h0l-0.17.19-0.17.19h0a11.62,11.62,0,0,0-2.3,4h0l-0.08.24-0.08.24h0a11.63,11.63,0,0,0-.48,4.58h0l0,0.25,0,0.25h0A11.61,11.61,0,0,0,1.77,18.4h0l0.13,0.22L2,18.84H2A11.63,11.63,0,0,0,5.1,22.25h0l0.2,0.15h0L5.5,22.56h0a11.64,11.64,0,0,0,4.2,1.87h0L10,24.48l0.24,0.05h0a12,12,0,0,0,2.3.24,12,12,0,0,0,2.3-.24h0L15,24.48l0.25-.05h0a11.64,11.64,0,0,0,4.2-1.87h0l0.2-.15,0.2-.15h0A11.65,11.65,0,0,0,23,18.83h0l0.13-.22,0.13-.22h0A11.61,11.61,0,0,0,24.65,14h0l0-.25,0-.25h0A11.63,11.63,0,0,0,24.22,8.95ZM14.35,19.4a7.08,7.08,0,0,1-5.42-.71,6.73,6.73,0,0,1-2.48-2.4l3.38-1.95a3.24,3.24,0,0,0,5.36,0l3.38,1.95A7.09,7.09,0,0,1,14.35,19.4ZM5.6,10.65A7.09,7.09,0,0,1,8.93,6.32a6.73,6.73,0,0,1,3.32-1V9.28A3.21,3.21,0,0,0,9.58,13.9l-3.38,2A7.09,7.09,0,0,1,5.6,10.65Zm6.9,4.6a2.75,2.75,0,1,1,2.75-2.75A2.75,2.75,0,0,1,12.5,15.25Zm6.3,0.6-3.38-2a3.21,3.21,0,0,0-2.67-4.62V5.36a7.15,7.15,0,0,1,6.89,7.14A6.73,6.73,0,0,1,18.8,15.85Zm5.41-2.38L20.11,13c0-.18,0-0.35,0-0.54a7.61,7.61,0,0,0-.31-2.13L23.76,9.1A11.12,11.12,0,0,1,24.22,13.47ZM23.6,8.62L19.67,9.9a7.64,7.64,0,0,0-1.34-2.32L20.07,6,21.4,4.81A11.1,11.1,0,0,1,23.6,8.62ZM17.51,1.86a11,11,0,0,1,3.56,2.58l-0.94.84L18,7.21a7.67,7.67,0,0,0-2.17-1.57l0.33-.75Zm-0.46-.21-1.32,3-0.36.81a7.58,7.58,0,0,0-2.62-.55V0.74A11.13,11.13,0,0,1,17.05,1.65Zm-4.8-.92V4.88a7.28,7.28,0,0,0-2.63.54L7.95,1.65A11.13,11.13,0,0,1,12.25.74ZM7.49,1.86L9.17,5.64C9,5.72,8.84,5.79,8.68,5.88A7.67,7.67,0,0,0,7,7.2L3.93,4.44A11.12,11.12,0,0,1,7.49,1.86Zm-3.89,3L6.67,7.58A7.57,7.57,0,0,0,5.32,9.9L1.4,8.62A11.1,11.1,0,0,1,3.6,4.81ZM1.24,9.1l3.93,1.28,0,0.15A7.64,7.64,0,0,0,4.88,13l-4.1.43A11.12,11.12,0,0,1,1.24,9.1ZM0.84,14l4.09-.43a7.61,7.61,0,0,0,.84,2.55L2.19,18.15A11.07,11.07,0,0,1,.84,14Zm1.61,4.62L6,16.52a7.27,7.27,0,0,0,1.79,2L5.39,21.86A11.11,11.11,0,0,1,2.44,18.59Zm5.77,0.22c0.15,0.1.3,0.21,0.46,0.3a7.66,7.66,0,0,0,2,.8l-0.86,4a11.12,11.12,0,0,1-4-1.79ZM10.3,24l0.86-4a7.51,7.51,0,0,0,1.33.13A7.67,7.67,0,0,0,13.84,20l0.86,4A11.21,11.21,0,0,1,10.3,24Zm4.89-.1-0.86-4,0.15,0a7.64,7.64,0,0,0,2.31-1.06l2.42,3.33A11.12,11.12,0,0,1,15.19,23.94Zm4.42-2.08-2.42-3.33a7.61,7.61,0,0,0,1.79-2l3.57,2.06A11.12,11.12,0,0,1,19.61,21.86Zm3.19-3.7-3.58-2.06a7.27,7.27,0,0,0,.84-2.55L24.16,14A11.07,11.07,0,0,1,22.81,18.15Z"/></svg>